#!OML:ASF H:\BabyWalks\Project 1\Capture day 1\Session 1\baby.ASF
:FULLY-SPECIFIED
:DEGREES
356
root -11.2221 17.2977 10.6971 -2.33085 44.0488 -9.82776
lowerback 20.0505 2.26752 4.64869
upperback 4.63939 4.11929 1.10436
thorax -5.91452 2.00406 -2.46364
lowerneck 3.36581 11.8356 10.4101
upperneck -21.4315 15.5516 -12.5383
head -5.11254 8.02265 -6.25597
rclavicle -3.65267e-014 -1.89839e-014
rhumerus -38.6481 12.7561 -86.2753
rradius 53.7091
rwrist -1.07436
rhand -9.64293 -16.2558
rfingers 7.12502
rthumb 16.3275 -45.5885
lclavicle -3.65267e-014 -1.89839e-014
lhumerus -42.6763 -15.2357 79.0535
lradius 50.6697
lwrist 2.82866
lhand -4.27615 9.67699
lfingers 7.12502
lthumb 21.4888 38.5051
rfemur 2.12276 9.70632 29.7749
rtibia 29.2859
rfoot -16.8788 11.3198
rtoes -8.18669
lfemur -35.3044 -5.04699 -9.15805
ltibia 40.5649
lfoot -11.0323 -20.1551
ltoes 2.3511
357
root -11.1733 17.3058 10.7348 -2.16385 44.108 -9.80782
lowerback 20.0994 2.21262 4.49381
upperback 4.56709 4.00597 0.927686
thorax -6.02392 1.94482 -2.54415
lowerneck 3.33048 11.8947 10.2939
upperneck -21.4393 15.6474 -12.3601
head -5.12656 8.06293 -6.1838
rclavicle 5.22307e-014 -3.71727e-014
rhumerus -38.9287 12.5917 -86.5798
rradius 53.454
rwrist -0.475367
rhand -8.97571 -16.179
rfingers 7.12502
rthumb 16.9698 -45.4577
lclavicle 5.22307e-014 -3.71727e-014
lhumerus -42.0626 -15.3004 78.7739
lradius 51.3407
lwrist 3.37586
lhand -4.67756 9.57252
lfingers 7.12502
lthumb 21.1032 38.4441
rfemur 2.15714 9.67319 29.6633
rtibia 29.2026
rfoot -16.5053 11.5884
rtoes -8.31776
lfemur -35.3078 -5.02999 -9.245
ltibia 40.6818
lfoot -11.2523 -20.1569
ltoes 2.46628
358
root -11.1264 17.3137 10.7717 -1.98862 44.1602 -9.78794
lowerback 20.1312 2.16996 4.32559
upperback 4.49893 3.90547 0.765274
thorax -6.121 1.89268 -2.60365
lowerneck 3.30915 11.9485 10.1869
upperneck -21.4696 15.733 -12.2146
head -5.14711 8.10051 -6.12559
rclavicle -2.48481e-015 2.62396e-014
rhumerus -39.2232 12.4473 -86.8523
rradius 53.2406
rwrist 0.0407467
rhand -8.36465 -16.0802
rfingers 7.12502
rthumb 17.5579 -45.3074
lclavicle -2.48481e-015 2.62396e-014
lhumerus -41.4751 -15.326 78.5007
lradius 52.0596
lwrist 3.95054
lhand -5.02718 9.53971
lfingers 7.12502
lthumb 20.7673 38.4484
rfemur 2.18339 9.66302 29.5572
rtibia 29.1028
rfoot -16.1353 11.8389
rtoes -8.40758
lfemur -35.334 -5.04682 -9.31182
ltibia 40.8094
lfoot -11.4603 -20.1337
ltoes 2.53647
359
root -11.0815 17.3211 10.8076 -1.80698 44.2043 -9.77035
lowerback 20.1448 2.13996 4.14297
upperback 4.43438 3.81842 0.619768
thorax -6.20596 1.84797 -2.63885
lowerneck 3.2869 12.0003 10.0848
upperneck -21.4996 15.8125 -12.093
head -5.16532 8.13676 -6.07522
rclavicle -2.34566e-014 3.97569e-016
rhumerus -39.5284 12.3347 -87.0927
rradius 53.0596
rwrist 0.451564
rhand -7.82982 -15.9594
rfingers 7.12502
rthumb 18.0726 -45.1397
lclavicle -2.34566e-014 3.97569e-016
lhumerus -40.9167 -15.3199 78.2426
lradius 52.8204
lwrist 4.55385
lhand -5.3165 9.58453
lfingers 7.12502
lthumb 20.4893 38.5234
rfemur 2.19942 9.67174 29.4594
rtibia 28.9965
rfoot -15.7761 12.0671
rtoes -8.48363
lfemur -35.3813 -5.0956 -9.35645
ltibia 40.943
lfoot -11.652 -20.089
ltoes 2.58738
360
root -11.0385 17.3281 10.8427 -1.62864 44.2392 -9.7654
lowerback 20.1388 2.12245 3.95236
upperback 4.37755 3.74622 0.493976
thorax -6.27295 1.81157 -2.65051
lowerneck 3.30009 12.036 9.98931
upperneck -21.5792 15.8676 -12.0111
head -5.20288 8.16405 -6.04423
rclavicle -9.80008e-014 4.33351e-014
rhumerus -39.8308 12.2457 -87.2955
rradius 52.8894
rwrist 0.760463
rhand -7.38107 -15.7927
rfingers 7.12502
rthumb 18.5043 -44.9326
lclavicle -9.80008e-014 4.33351e-014
lhumerus -40.3795 -15.3015 78.0099
lradius 53.6022
lwrist 5.17553
lhand -5.58586 9.67866
lfingers 7.12502
lthumb 20.2304 38.6452
rfemur 2.2072 9.69655 29.3796
rtibia 28.8855
rfoot -15.4313 12.2654
rtoes -8.59645
lfemur -35.4466 -5.16679 -9.37309
ltibia 41.0811
lfoot -11.8251 -20.0304
ltoes 2.60989
361
root -10.997 17.3353 10.8768 -1.42381 44.2681 -9.73402
lowerback 20.1085 2.11899 3.73174
upperback 4.32806 3.68569 0.379222
thorax -6.321 1.78219 -2.63454
lowerneck 3.3198 12.064 9.90013
upperneck -21.6704 15.9085 -11.9591
head -5.24311 8.18644 -6.02447
rclavicle 1.05356e-014 -7.55382e-015
rhumerus -40.1258 12.1874 -87.4674
rradius 52.7341
rwrist 0.969255
rhand -7.01127 -15.6471
rfingers 7.12502
rthumb 18.86 -44.7528
lclavicle 1.05356e-014 -7.55382e-015
lhumerus -39.863 -15.2865 77.8085
lradius 54.3945
lwrist 5.81625
lhand -5.84578 9.81413
lfingers 7.12502
lthumb 19.9806 38.8069
rfemur 2.20822 9.73028 29.2832
rtibia 28.766
rfoot -15.1012 12.4471
rtoes -8.70584
lfemur -35.5264 -5.26039 -9.39757
ltibia 41.221
lfoot -11.9819 -19.9543
ltoes 2.62365
362
root -10.9569 17.3423 10.9096 -1.21895 44.2928 -9.70526
lowerback 20.0617 2.12404 3.51054
upperback 4.2853 3.63647 0.277682
thorax -6.35295 1.75912 -2.6056
lowerneck 3.34108 12.088 9.81142
upperneck -21.7601 15.9419 -11.9206
head -5.28251 8.20631 -6.00887
rclavicle -4.37326e-015 2.06736e-014
rhumerus -40.4056 12.1504 -87.6099
rradius 52.5862
rwrist 1.11158
rhand -6.68596 -15.5659
rfingers 7.12502
rthumb 19.1728 -44.6408
lclavicle -4.37326e-015 2.06736e-014
lhumerus -39.3647 -15.2913 77.639
lradius 55.1805
lwrist 6.48499
lhand -6.10257 9.97617
lfingers 7.12502
lthumb 19.7338 38.9945
rfemur 2.20987 9.76321 29.1939
rtibia 28.6328
rfoot -14.7876 12.6033
rtoes -8.85783
lfemur -35.6175 -5.36079 -9.4135
ltibia 41.364
lfoot -12.1227 -19.8735
ltoes 2.63931
363
root -10.9179 17.3492 10.9412 -1.02904 44.3107 -9.69192
lowerback 20.0043 2.13486 3.30366
upperback 4.24939 3.59849 0.189196
thorax -6.37095 1.74199 -2.57262
lowerneck 3.37035 12.1047 9.73012
upperneck -21.8508 15.9634 -11.9008
head -5.32227 8.22147 -6.00068
rclavicle -2.8625e-014 2.98177e-014
rhumerus -40.6681 12.1342 -87.7279
rradius 52.4413
rwrist 1.19657
rhand -6.40466 -15.5555
rfingers 7.12502
rthumb 19.4433 -44.6034
lclavicle -2.8625e-014 2.98177e-014
lhumerus -38.8847 -15.3294 77.5018
lradius 55.9483
lwrist 7.17314
lhand -6.37232 10.1518
lfingers 7.12502
lthumb 19.4744 39.1966
rfemur 2.22205 9.79052 29.1216
rtibia 28.4815
rfoot -14.4922 12.7365
rtoes -9.05298
lfemur -35.7099 -5.46074 -9.41476
ltibia 41.5076
lfoot -12.2517 -19.7885
ltoes 2.65974
364
root -10.8798 17.3561 10.9714 -0.862639 44.3116 -9.70421
lowerback 19.9406 2.15406 3.12074
upperback 4.2189 3.57731 0.113403
thorax -6.37788 1.73316 -2.54305
lowerneck 3.39864 12.1139 9.65897
upperneck -21.9313 15.9727 -11.8967
head -5.35752 8.23128 -5.99783
rclavicle 9.91935e-014 7.95139e-015
rhumerus -40.9072 12.1293 -87.8236
rradius 52.2843
rwrist 1.2237
rhand -6.1873 -15.5561
rfingers 7.12502
rthumb 19.6523 -44.5827
lclavicle 9.91935e-014 7.95139e-015
lhumerus -38.4239 -15.4148 77.3977
lradius 56.6831
lwrist 7.866
lhand -6.7105 10.2928
lfingers 7.12502
lthumb 19.1492 39.3701
rfemur 2.25089 9.81993 29.0725
rtibia 28.3025
rfoot -14.202 12.8498
rtoes -9.24745
lfemur -35.799 -5.54207 -9.39683
ltibia 41.6548
lfoot -12.3792 -19.7034
ltoes 2.67854
365
root -10.8423 17.3628 11.0001 -0.717938 44.294 -9.73456
lowerback 19.8704 2.17992 2.96243
upperback 4.19574 3.57044 0.0447673
thorax -6.37139 1.73145 -2.52254
lowerneck 3.41773 12.1244 9.59972
upperneck -21.9909 15.9825 -11.8998
head -5.3829 8.24118 -5.99642
rclavicle 2.06736e-014 -1.74931e-014
rhumerus -41.1174 12.1295 -87.9027
rradius 52.11
rwrist 1.19707
rhand -6.05857 -15.539
rfingers 7.12502
rthumb 19.7761 -44.553
lclavicle 2.06736e-014 -1.74931e-014
lhumerus -37.978 -15.5495 77.3189
lradius 57.3748
lwrist 8.54553
lhand -7.10461 10.3973
lfingers 7.12502
lthumb 18.7702 39.5117
rfemur 2.30278 9.8466 29.0398
rtibia 28.0904
rfoot -13.9142 12.949
rtoes -9.42633
lfemur -35.8774 -5.60034 -9.36852
ltibia 41.803
lfoot -12.5114 -19.6187
ltoes 2.69457
366
root -10.805 17.3695 11.0275 -0.602487 44.2556 -9.79093
lowerback 19.7987 2.21001 2.83951
upperback 4.177 3.57701 -0.0174438
thorax -6.35668 1.73603 -2.51811
lowerneck 3.42328 12.1347 9.54484
upperneck -22.0189 15.9922 -11.8964
head -5.39648 8.25012 -5.99034
rclavicle 6.0033e-014 -1.11319e-014
rhumerus -41.3022 12.1308 -87.9676
rradius 51.9199
rwrist 1.12908
rhand -5.98753 -15.5344
rfingers 7.12502
rthumb 19.8443 -44.5414
lclavicle 6.0033e-014 -1.11319e-014
lhumerus -37.5558 -15.7317 77.2596
lradius 58.0287
lwrist 9.19666
lhand -7.52209 10.4691
lfingers 7.12502
lthumb 18.3686 39.6219
rfemur 2.38136 9.86759 29.0271
rtibia 27.8445
rfoot -13.6278 13.0374
rtoes -9.58842
lfemur -35.9392 -5.63876 -9.32389
ltibia 41.9497
lfoot -12.6551 -19.5274
ltoes 2.69644
367
root -10.768 17.376 11.0535 -0.513219 44.1969 -9.86547
lowerback 19.7285 2.24424 2.7475
upperback 4.16233 3.59583 -0.0757684
thorax -6.33601 1.74631 -2.52981
lowerneck 3.41666 12.1422 9.50449
upperneck -22.0177 15.9973 -11.8961
head -5.39779 8.256 -5.98405
rclavicle -1.13307e-014 2.74323e-014
rhumerus -41.4603 12.1261 -88.0184
rradius 51.7176
rwrist 1.0378
rhand -5.97029 -15.5291
rfingers 7.12502
rthumb 19.8609 -44.5343
lclavicle -1.13307e-014 2.74323e-014
lhumerus -37.1612 -15.9572 77.2158
lradius 58.6423
lwrist 9.7976
lhand -7.93924 10.5059
lfingers 7.12502
lthumb 17.9673 39.696
rfemur 2.48984 9.88094 29.0277
rtibia 27.5646
rfoot -13.3387 13.1189
rtoes -9.70112
lfemur -35.9792 -5.65287 -9.27082
ltibia 42.0906
lfoot -12.8115 -19.4367
ltoes 2.69512
368
root -10.7313 17.3823 11.0781 -0.442148 44.1243 -9.95013
lowerback 19.6562 2.27831 2.68329
upperback 4.15009 3.62019 -0.134017
thorax -6.30949 1.75903 -2.55819
lowerneck 3.40586 12.1508 9.47546
upperneck -21.9909 16.0051 -11.8912
head -5.38968 8.26194 -5.97572
rclavicle -7.55382e-014 -1.03368e-014
rhumerus -41.591 12.1084 -88.0587
rradius 51.5037
rwrist 0.944409
rhand -6.04264 -15.4385
rfingers 7.12502
rthumb 19.7914 -44.4509
lclavicle -7.55382e-014 -1.03368e-014
lhumerus -36.8025 -16.2207 77.1825
lradius 59.2135
lwrist 10.309
lhand -8.35131 10.4957
lfingers 7.12502
lthumb 17.5708 39.7217
rfemur 2.62502 9.88321 29.0347
rtibia 27.2528
rfoot -13.0551 13.1944
rtoes -9.78938
lfemur -35.9999 -5.64721 -9.21605
ltibia 42.2225
lfoot -12.9804 -19.3467
ltoes 2.67394
369
root -10.6949 17.3883 11.1015 -0.389381 44.0372 -10.0402
lowerback 19.5875 2.31157 2.64352
upperback 4.13771 3.64864 -0.192774
thorax -6.28322 1.77335 -2.60203
lowerneck 3.3965 12.1586 9.4588
upperneck -21.9389 16.0134 -11.8815
head -5.37335 8.26678 -5.96596
rclavicle 3.61788e-014 1.90833e-014
rhumerus -41.7024 12.0794 -88.0884
rradius 51.286
rwrist 0.855078
rhand -6.1699 -15.2988
rfingers 7.12502
rthumb 19.669 -44.3237
lclavicle 3.61788e-014 1.90833e-014
lhumerus -36.4925 -16.5092 77.1572
lradius 59.7547
lwrist 10.7254
lhand -8.71817 10.4586
lfingers 7.12502
lthumb 17.2177 39.7158
rfemur 2.78772 9.87063 29.044
rtibia 26.9149
rfoot -12.7799 13.2681
rtoes -9.86187
lfemur -35.9949 -5.6266 -9.16222
ltibia 42.3406
lfoot -13.1579 -19.2557
ltoes 2.68315
370
root -10.659 17.3938 11.1238 -0.348015 43.9415 -10.1283
lowerback 19.5224 2.34333 2.61926
upperback 4.12572 3.67838 -0.252751
thorax -6.25718 1.78806 -2.65633
lowerneck 3.37914 12.1675 9.44776
upperneck -21.8567 16.0251 -11.8577
head -5.3469 8.27156 -5.94996
rclavicle 4.41302e-014 -1.51076e-014
rhumerus -41.7917 12.036 -88.1069
rradius 51.0684
rwrist 0.779929
rhand -6.34784 -15.1118
rfingers 7.12502
rthumb 19.4979 -44.1542
lclavicle 4.41302e-014 -1.51076e-014
lhumerus -36.2325 -16.8141 77.1387
lradius 60.2693
lwrist 11.0378
lhand -9.01145 10.4079
lfingers 7.12502
lthumb 16.9354 39.6895
rfemur 2.9714 9.84383 29.0513
rtibia 26.5591
rfoot -12.5142 13.3361
rtoes -9.92609
lfemur -35.9672 -5.59239 -9.11495
ltibia 42.4413
lfoot -13.3386 -19.1667
ltoes 2.71408
